<?xml version="1.0" encoding="utf-8"?>
<!-- Generator: Adobe Illustrator 27.5.0, SVG Export Plug-In . SVG Version: 6.00 Build 0)  -->
<svg version="1.1" xmlns="http://www.w3.org/2000/svg" xmlns:xlink="http://www.w3.org/1999/xlink" x="0px" y="0px"
	 viewBox="0 0 2000 2000" style="enable-background:new 0 0 2000 2000;" xml:space="preserve">
<g id="Layer_2">
	<rect style="fill:#FFFFFF;" width="2000" height="2000"/>
</g>
<g id="Layer_1">
	<g>
		<g>
			<path style="fill:#566E3B;" d="M1350.028,306.826l-23.421,13.467l-11.717,6.742l-11.505,7.091l-22.972,14.274l-22.522,14.982
				l-11.264,7.501c-3.734,2.53-7.35,5.227-11.029,7.837l-21.995,15.785l-2.75,1.974l-2.684,2.06l-5.368,4.123l-10.739,8.247
				l-10.742,8.25c-1.783,1.385-3.601,2.727-5.354,4.149l-5.232,4.3c-13.897,11.531-28.017,22.823-41.372,35.002l-20.274,18.001
				l-19.667,18.668c-13.337,12.228-25.657,25.48-38.357,38.361c-6.423,6.376-12.35,13.213-18.468,19.876l-18.248,20.093
				l-17.533,20.721l-8.757,10.374l-4.379,5.188l-4.198,5.333l-16.689,21.42l-8.334,10.721c-2.695,3.635-5.301,7.337-7.956,11.002
				c-10.517,14.735-21.389,29.233-31.157,44.489l-15.021,22.635c-2.572,3.731-4.818,7.665-7.207,11.511l-7.076,11.595
				c-37.73,61.847-70.129,126.911-97.414,194.002c-27.032,67.205-48.898,136.436-65.771,206.807l-6.192,26.424l-1.547,6.605
				c-0.479,2.209-0.88,4.436-1.323,6.653l-2.601,13.315l-5.199,26.627l-2.599,13.312l-2.134,13.393l-4.215,26.792l-2.106,13.394
				c-0.678,4.468-1.49,8.917-1.934,13.417l-6.289,53.853c-0.247,2.245-0.557,4.483-0.752,6.733l-0.547,6.754l-1.093,13.506
				l-2.184,27.008c-1.731,17.984-2.223,36.048-3.038,54.084l-1.146,27.054c-0.259,4.506-0.218,9.022-0.27,13.534l-0.113,13.537
				l-0.225,27.068l-0.112,13.531l-0.056,6.764l0.177,6.764l1.533,54.09c0.159,4.505,0.188,9.013,0.452,13.514l0.82,13.5
				l1.698,26.989l1.731,26.976c0.226,4.499,0.732,8.98,1.147,13.466l1.297,13.454l5.37,53.769l-2.872-53.943l-0.764-13.474
				c-0.242-4.492-0.575-8.978-0.627-13.479l-0.691-26.983l-0.725-26.97l-0.39-13.48c-0.122-4.493-0.007-8.992-0.023-13.487
				l0.186-53.929l0.022-6.738l0.224-6.736l0.448-13.471l0.897-26.934l0.448-13.464c0.163-4.487,0.234-8.978,0.604-13.455
				l1.813-26.879c1.313-17.908,2.061-35.852,4.114-53.692l2.652-26.789l1.326-13.392l0.662-6.695
				c0.233-2.23,0.582-4.448,0.867-6.672c8.574-71.25,21.226-141.969,38.533-211.503c17.165-69.557,38.913-137.982,65.877-204.304
				c26.675-66.433,58.63-130.725,95.447-192.111c36.667-61.489,78.584-119.818,124.679-174.68l17.71-20.212
				c5.941-6.705,11.692-13.588,17.94-20.014l18.427-19.578l4.606-4.898c1.511-1.657,3.078-3.258,4.679-4.826l9.52-9.495
				l19.045-18.999l19.67-18.355c12.947-12.436,26.722-23.941,40.194-35.807l5.065-4.437c1.698-1.468,3.46-2.857,5.188-4.289
				l10.415-8.534l10.419-8.537l5.211-4.27l2.606-2.135l2.672-2.049l21.386-16.395c3.577-2.717,7.107-5.501,10.719-8.173
				l10.926-7.893l21.871-15.786l22.346-15.118l11.153-7.605l11.375-7.263L1350.028,306.826z"/>
			<path style="fill:#442659;" d="M1292.347,348.608c14.425-24.866,28.851-49.732,43.276-74.599
				c2.488-4.289,4.903-9.983,1.753-13.812c-5.635,1.472-10.554,4.884-15.107,8.517
				C1294.874,290.572,1276.25,323.124,1292.347,348.608z"/>
			<path style="fill:#442659;" d="M1213.751,394.275c18.534-8.168,37.306-15.797,56.284-22.874
				c6.696-2.497,13.524-4.949,20.652-5.459c11.799-0.844,23.877,4.04,31.773,12.849c2.485,2.773,4.675,6.424,3.764,10.034
				c-1.005,3.981-5.241,6.103-9.043,7.654c-13.664,5.575-28.322,10.449-42.93,8.358
				C1259.601,402.741,1246.641,393.848,1213.751,394.275z"/>
			<path style="fill:#442659;" d="M1129.336,472.628c28.613-3.283,56.801-10.251,83.648-20.678c4.226-1.641,9.313-5.675,7.017-9.585
				c-24.067-6.351-51.096-0.099-69.929,16.176c14.466-7.276,25.937-20.306,31.32-35.578c-16.18,0.399-29.584,12.059-41.452,23.063
				c13.375-18.681,23.444-39.723,29.599-61.858c2.061-7.412,2.669-17.323-4.19-20.806c-6.703-3.404-14.303,2.629-18.741,8.697
				c-14.907,20.379-20.525,45.892-25.787,70.587C1118.404,453.989,1116.002,465.901,1129.336,472.628z"/>
			<path style="fill:#442659;" d="M1049.581,536.991c24.814-10.018,49.89-19.387,75.193-28.096c4.74-1.631,10.896-2.87,14.008,1.06
				c-11.112,14.6-29.709,20.953-47.186,26.539c7.477,1.82,14.823,4.183,21.959,7.062c5.652,2.281,11.947,5.906,12.57,11.97
				c0.603,5.87-4.608,10.745-9.94,13.273c-13.329,6.321-29.303,4.258-42.965-1.31
				C1059.558,561.922,1047.48,553.165,1049.581,536.991z"/>
			<path style="fill:#442659;" d="M1011.036,583.91c10.466-34.007,18.947-68.625,25.387-103.619
				c0.696-3.784,1.272-8.042-0.961-11.175c-2.858-4.009-9.182-4.009-13.29-1.296c-4.108,2.714-6.509,7.307-8.653,11.739
				c-13.419,27.735-23.766,58.832-17.672,89.033C998.44,581.441,1007.255,596.197,1011.036,583.91z"/>
			<path style="fill:#442659;" d="M934.352,649.672c14.395-23.347,29.851-46.04,46.304-67.986c1.088-1.451,2.453-3.042,4.267-3.029
				c3.051,0.021,4.002,4.156,3.703,7.192c-2.899,29.459-31.175,49.421-43.34,76.407c14.881-12.804,31.57-23.503,49.416-31.68
				c9.548-4.375,20.596-8.043,30.331-4.101c1.734,0.702,3.473,1.735,4.283,3.421c0.768,1.599,0.558,3.485,0.182,5.219
				c-2.998,13.826-15.05,23.98-27.829,30.05c-12.778,6.07-26.811,9.135-39.635,15.108c12.797-6.466,27.728-8.617,41.83-6.024
				c3.942,0.725,8.031,1.932,10.771,4.857c3.943,4.208,3.941,11.061,1.251,16.162c-2.69,5.101-7.539,8.713-12.575,11.522
				c-11.182,6.238-24.473,9.341-36.991,6.65C945.906,709.053,912.91,684.447,934.352,649.672z"/>
			<path style="fill:#442659;" d="M873.984,781.552c17.159-0.606,34.351-1.214,51.37-3.486c10.17-1.357,21.047-3.732,27.866-11.399
				c6.819-7.666,6.371-22.179-3.09-26.148c-5.643-2.368-12.105-0.281-17.693,2.215c-16.41,7.331-31.21,18.24-43.068,31.746
				c8.565-10.213,15.961-21.766,19.122-34.715c3.161-12.949,1.632-27.481-6.282-38.206c-1.442-1.954-3.242-3.866-5.615-4.387
				c-4.925-1.082-8.792,4.074-11.038,8.588c-9.533,19.152-15.985,39.834-19.033,61.01
				C864.996,777.388,864.436,788.753,873.984,781.552z"/>
			<path style="fill:#442659;" d="M798.246,934.061c-7.809-30.962-14.085-62.311-18.798-93.893
				c-0.531-3.561-0.873-7.689,1.636-10.271c2.662-2.74,7.454-2.202,10.45,0.169c2.996,2.37,4.606,6.044,5.996,9.602
				c6.674,17.088,10.906,35.127,12.528,53.399c0.626,7.05,0.194,15.507-5.795,19.279c9.293-17.399,19.269-34.433,29.9-51.049
				c4.426-6.918,12.084-14.729,19.444-11.087c6.021,2.98,6.407,11.388,5.147,17.987c-4.067,21.301-16.591,40.867-34.232,53.479
				c22.75-11.641,39.192-34.572,63.632-42.041c6.963-2.128,15.297-2.604,20.783,2.183c-11.951,20.058-30.816,35.351-51.566,46.057
				S813.94,944.998,798.246,934.061z"/>
			<path style="fill:#442659;" d="M752.008,1044.889c-3.382-29.115-8.209-58.061-14.458-86.698
				c-1.953-8.952-4.4-18.487-11.295-24.522c-6.895-6.035-19.691-5.961-23.601,2.325c-1.698,3.598-1.367,7.804-0.679,11.724
				C708.916,987.293,747.461,1018.375,752.008,1044.889z"/>
			<path style="fill:#442659;" d="M768.829,1002.91c19.266-18.299,40.099-34.948,62.197-49.703
				c9.719-6.49,20.149-12.778,31.78-13.908c7.055-0.685,15.423,1.48,18.117,8.036c1.942,4.725,0.242,10.197-2.402,14.569
				c-7.472,12.352-21.419,19.045-34.831,24.384C813.752,998.206,782.483,1006.78,768.829,1002.91z"/>
			<path style="fill:#734494;" d="M1329.85,319.284c13.886-1.414,27.844-3.547,40.835-8.652
				c12.991-5.104,25.062-13.415,32.644-25.134c1.574-2.433,2.89-5.82,1.003-8.021c-1.881-2.195-5.396-1.428-8.103-0.412
				C1371.941,286.185,1349.659,300.609,1329.85,319.284z"/>
			<path style="fill:#734494;" d="M1290.91,337.866c17.419-5.987,33.847-14.694,51.479-20.02c5.958-1.8,12.225-3.216,18.372-2.239
				c2.316,0.368,4.986,1.519,5.305,3.842c0.151,1.099-0.291,2.19-0.803,3.175c-3.206,6.158-9.393,10.334-15.962,12.58
				c-6.568,2.247-13.578,2.79-20.5,3.316C1315.848,339.503,1302.894,340.487,1290.91,337.866z"/>
			<path style="fill:#734494;" d="M1240.017,376.865c17.315-5.201,31.369-20.079,35.574-37.663c0.625-2.613,0.019-6.529-2.662-6.346
				c-1.111,0.076-1.986,0.939-2.752,1.749c-4.382,4.633-8.764,9.266-13.146,13.899c3.912-12.356,7.857-24.891,8.399-37.84
				c0.13-3.102,0.045-6.299-1.145-9.166c-1.19-2.867-3.697-5.362-6.777-5.75c-3.919-0.493-7.424,2.391-10.006,5.38
				c-9.424,10.907-13.731,25.307-16.276,39.495C1228.536,355.621,1227.531,370.878,1240.017,376.865z"/>
			<path style="fill:#734494;" d="M1192.05,413.503c1.237-17.791,2.555-35.938,9.336-52.433c1.435-3.49,3.171-6.97,5.954-9.518
				c0.663-0.607,1.437-1.178,2.333-1.252c2.201-0.182,3.42,2.481,3.795,4.657c2.745,15.945-4.26,31.784-11.19,46.405
				C1199.66,406.885,1196.767,412.702,1192.05,413.503z"/>
			<path style="fill:#734494;" d="M1178.098,431.573c16.403-13.024,32.179-29.169,52.864-32.456
				c7.786-1.237,15.88-0.489,23.307,2.156c0.659,0.234,1.359,0.521,1.726,1.116c0.794,1.288-0.469,2.84-1.639,3.798
				C1235.595,421.549,1211.593,430.384,1178.098,431.573z"/>
			<path style="fill:#734494;" d="M1118.647,472.964c14.69-11.686,28.929-23.939,42.675-36.723c2.613-2.43,5.238-4.916,7.121-7.947
				c1.654-2.663,2.679-5.659,3.691-8.626c1.858-5.449,3.716-10.897,5.573-16.345c1.493-4.377,2.999-9.086,1.751-13.539
				c-7.09-1.004-14.302,2.027-19.727,6.701c-5.424,4.674-9.311,10.857-12.793,17.114
				C1136.799,431.816,1129.374,451.542,1118.647,472.964z"/>
			<path style="fill:#734494;" d="M1089.801,512.808c11.466-18.545,32.042-31.144,53.772-32.926c3.1-0.254,6.896,0.079,8.283,2.863
				c1.736,3.484-1.831,7.196-5.086,9.331c-14.452,9.482-30.668,15.873-46.754,22.197c23.932-6.595,47.891-13.197,72.246-17.994
				c6.021-1.186,14.318-0.926,15.817,5.025c1.001,3.976-2.078,7.791-5.288,10.342c-10.706,8.51-24.746,11.399-38.305,13.181
				C1118.061,528.302,1091.33,528.557,1089.801,512.808z"/>
			<path style="fill:#734494;" d="M1041.943,558.158c-1.255-25.916-2.482-52.185,3.01-77.543c2.283-10.54,6.018-21.314,13.96-28.609
				c2.973-2.731,7.477-4.928,10.896-2.783c2.482,1.557,3.282,4.752,3.731,7.647c3.23,20.809-1.03,42.702-11.828,60.781
				c4.962-9.78,11.082-18.972,18.192-27.321c3.444-4.045,7.527-8.117,12.778-8.929c1.542-0.238,3.197-0.158,4.548,0.624
				c2.001,1.158,2.907,3.587,3.171,5.884c0.724,6.284-2.196,12.378-5.361,17.855
				C1082.965,526.653,1066.017,544.704,1041.943,558.158z"/>
			<path style="fill:#734494;" d="M974.547,620.644c22.487,3.742,45.656,7.471,67.891,2.44
				c22.234-5.031,43.578-21.028,47.792-43.432c0.405-2.156,0.626-4.491-0.363-6.449c-1.606-3.18-5.675-4.122-9.234-4.273
				c-6.23-0.265-12.514,0.801-18.309,3.106c-6.554,2.606-12.379,6.723-18.134,10.802
				C1022.671,598.087,1001.153,613.337,974.547,620.644z"/>
			<path style="fill:#734494;" d="M996.218,613.107c-3.809-22.064-12.196-43.106-16.532-65.072
				c-4.336-21.966-4.154-46.193,7.955-65.026c1.561-2.428,3.647-4.945,6.519-5.232c3.046-0.304,5.665,2.001,7.824,4.171
				c6.719,6.751,13.5,14.433,14.674,23.885c0.637,5.125-0.46,10.289-1.55,15.336c-5.566,25.77-11.132,51.54-16.698,77.309
				C996.499,607.327,993.93,617.141,996.218,613.107z"/>
			<path style="fill:#734494;" d="M922.877,719.316c21.029-22.177,42.914-45.92,49.47-75.77c0.422-1.923,0.722-4.124-0.459-5.699
				c-1.705-2.273-5.228-1.761-7.883-0.749c-19.236,7.33-30.229,27.13-39.623,45.447c13.224-21.106,19.363-46.568,17.211-71.382
				c-0.607-6.994-2.001-14.273-6.43-19.72s-12.694-8.318-18.729-4.731c-3.569,2.12-5.704,5.977-7.377,9.776
				c-9.453,21.45-9.271,45.849-6.991,69.179S908.558,712.365,922.877,719.316z"/>
			<path style="fill:#734494;" d="M876.078,780.465c14.715-20.132,25.745-42.782,40.729-62.714
				c14.983-19.933,35.242-37.643,59.82-41.858c5.245-0.9,12.658,0.62,12.579,5.941c-0.021,1.398-0.635,2.711-1.273,3.955
				c-10.844,21.131-31.456,35.275-51.804,47.524C915.78,745.562,894.283,757.316,876.078,780.465z"/>
			<path style="fill:#734494;" d="M855.745,824.216c4.61-39.562,3.376-81.694-16.294-116.328c-2.573-4.53-6.598-9.471-11.763-8.791
				c-5.644,0.743-8.065,7.517-8.769,13.167C814.705,746.093,829.163,779.188,855.745,824.216z"/>
			<path style="fill:#734494;" d="M864.81,802.2c27.039-20.468,54.439-41.148,85.684-54.333c9.687-4.088,21.109-7.345,30.367-2.362
				c2.25,1.211,4.372,3.052,4.965,5.538c0.852,3.573-1.662,7.02-4.196,9.681c-16.107,16.917-38.692,26.042-61.153,32.459
				C898.017,799.599,874.794,803.854,864.81,802.2z"/>
			<path style="fill:#734494;" d="M818.928,878.078c0.547-29.799-8.028-61.081,3.515-88.559c1.228-2.923,3.708-6.265,6.764-5.421
				c1.281,0.354,2.241,1.397,3.074,2.433c9.351,11.632,11.421,27.821,8.822,42.517C838.505,843.745,831.751,857.336,818.928,878.078
				z"/>
			<path style="fill:#734494;" d="M851.224,839.789c33.802-27.708,68.903-56.11,110.965-67.994
				c4.805-1.358,10.615-2.264,14.241,1.169c-2.498,17.167-19.576,27.809-35.172,35.405
				C905.264,825.898,867.618,840.035,851.224,839.789z"/>
			<path style="fill:#734494;" d="M785.261,989.745c-0.281-25.175-1.567-50.339-3.854-75.411c-1.751-19.19-5.034-40.199-19.613-52.8
				c-2.548-2.202-5.482-4.116-8.795-4.717c-7.373-1.336-14.382,4.172-18.33,10.542c-11.594,18.708-5.162,43.069,3.31,63.383
				C749.945,959.435,765.374,986.681,785.261,989.745z"/>
			<path style="fill:#734494;" d="M748.228,1064.566c-7.967-26.317-11.705-53.91-11.029-81.398
				c0.105-4.264,0.752-9.273,4.482-11.343c2.685-1.49,6.039-0.841,8.918,0.229c11.495,4.272,20.33,15.016,22.3,27.12
				c2.581,15.857-5.688,33.243,1.492,47.615c12.656-19.598,25.399-39.309,41.269-56.409c9.853-10.617,21.841-20.615,36.232-22.249
				c14.392-1.635,30.784,8.702,30.624,23.186c-0.117,10.619-8.423,19.175-16.487,26.086c-19.331,16.569-40.625,30.846-63.293,42.439
				C785.66,1068.573,765.98,1075.907,748.228,1064.566z"/>
			<path style="fill:#734494;" d="M798.354,934.505c16.886-13.2,30.597-30.003,46.707-44.14
				c16.11-14.137,35.896-25.935,57.329-25.806c1.29,0.008,2.725,0.122,3.604,1.066c1.679,1.805-0.031,4.66-1.725,6.451
				C872.153,906.037,832.14,932.482,798.354,934.505z"/>
		</g>
		<g>
			<path style="fill:#566E3B;" d="M1643.298,592.672l-16.499-1.846l-2.884-0.327l-6.942-0.769c-0.019,0-0.019,0-0.039,0
				l-2.692-0.307l-9.711-0.769l-3.865-0.327c0,0,0-0.019-0.019,0l-3.538-0.307h-0.019l-4.731-0.385h-0.019l-7.211-0.615
				l-19.441-1.039l-9.711-0.519c-3.25-0.135-6.48-0.173-9.73-0.27l-1.038-0.019c0-0.02,0-0.02-0.02,0l-12.307-0.308l-6.076-0.154
				l-2.442-0.057l-2.423,0.019l-4.865,0.038l-7.327,0.039h-0.135l-2.25,0.019l-9.73,0.077c-1.615,0.019-3.23,0-4.846,0.058
				l-2.346,0.096h-0.019l-1.692,0.076c0,0,0,0.02-0.019,0l-0.788,0.039c-12.941,0.558-25.903,0.769-38.806,1.884l-2.673,0.193
				c0,0-0.019,0.019-0.019,0l-16.672,1.212l-0.5,0.058l-18.807,1.98l-7.096,0.75l-0.192,0.019l-2.365,0.25
				c-1.615,0.154-3.211,0.346-4.827,0.596l-4.096,0.577l-0.711,0.096l-19.21,2.634c-0.769,0.096-1.538,0.193-2.307,0.288
				c0,0-0.019,0.02-0.039,0c-1.577,0.231-3.154,0.481-4.711,0.75c-4.038,0.654-8.057,1.404-12.095,2.077l-19.114,3.327
				c-6.538,1.288-13.076,2.634-19.595,4.038c-4.865,1.057-9.711,2.134-14.537,3.288c-3.596,0.807-7.173,1.673-10.75,2.557
				c0,0,0-0.019-0.019,0c-6.25,1.5-12.499,3.077-18.71,4.731c-0.019,0-0.019,0-0.019,0c-9.23,2.442-18.403,5.019-27.556,7.73
				c0,0,0,0-0.019,0c-2.461,0.731-4.884,1.461-7.345,2.231c-3.577,1.077-7.135,2.192-10.711,3.346h-0.019
				c-11.672,3.711-23.268,7.653-34.786,11.845h-0.019c-1.019,0.365-2.019,0.731-3.038,1.115c-0.019,0-0.038,0.019-0.057,0.019
				c-0.673,0.23-1.347,0.481-2.019,0.73c-0.25,0.096-0.481,0.173-0.731,0.27c-0.211,0.077-0.442,0.134-0.653,0.23
				c-1.731,0.635-3.423,1.269-5.135,1.923c-0.019,0-0.038,0.019-0.038,0.019c-3.135,1.173-6.269,2.346-9.365,3.577
				c-1.904,0.711-3.788,1.461-5.673,2.211c-0.019,0-0.019,0-0.019,0c-3.577,1.404-7.134,2.827-10.692,4.307
				c-7.961,3.231-15.864,6.576-23.729,10.018c-0.019,0-0.019,0-0.019,0c-1.423,0.635-2.865,1.27-4.269,1.923h-0.019
				c-2.404,1.058-4.807,2.135-7.192,3.231c-15.884,7.191-31.575,14.826-47.055,22.883c-4.038,2.096-8.057,4.25-12.076,6.422h-0.019
				c-1.519,0.789-3.019,1.596-4.499,2.423c-3.173,1.73-6.327,3.461-9.48,5.23c-6.576,3.634-13.076,7.365-19.576,11.172h-0.019
				c-4.769,2.75-9.499,5.577-14.23,8.423c-7.884,4.788-15.71,9.672-23.46,14.653c-6.461,4.154-12.865,8.365-19.21,12.653
				c-18.057,12.153-35.767,24.844-53.112,38.017c-25.46,19.287-50.132,39.632-74.015,60.881c2.058-6.442,4.096-12.865,6.153-19.307
				l0.673-0.615l7.269-6.557l7.48-6.308l14.999-12.595l7.48-6.307c1.27-1.039,2.5-2.115,3.769-3.135l3.866-3.019l15.441-12.038
				c17.941-13.826,36.325-27.095,55.093-39.805l0.019-0.02c14.711-9.922,29.671-19.499,44.882-28.69h0.019
				c1.615-0.981,3.23-1.961,4.846-2.923c6.135-3.673,12.307-7.268,18.499-10.787c2.442-1.404,4.865-2.769,7.307-4.134
				c4.365-2.423,8.768-4.807,13.172-7.154c7.211-3.865,14.461-7.634,21.768-11.287c0,0,0-0.019,0.019-0.019
				c4.442-2.25,8.884-4.461,13.365-6.634c0,0,0.038,0,0.019-0.019c10.23-4.942,20.518-9.75,30.921-14.345
				c5.019-2.231,10.018-4.404,15.076-6.519h0.019c3.384-1.442,6.769-2.846,10.153-4.23c4.615-1.904,9.25-3.75,13.884-5.538
				c8.038-3.154,16.115-6.173,24.249-9.096l9.23-3.307c3.076-1.076,6.134-2.269,9.268-3.211l10.672-3.365l5.288-1.673l2.731-0.865
				c5.999-2,12.076-3.788,18.172-5.499c6.48-1.827,12.999-3.558,19.499-5.365c0.827-0.231,1.635-0.461,2.461-0.673
				c0,0,0-0.019,0.019,0c2.327-0.654,4.634-1.307,6.961-1.904l9.557-2.25l3.692-0.865l13.614-3.173l1.77-0.423l0.019-0.019
				c0,0,0,0,0.019,0l4.73-1.077l4.807-0.942l6.423-1.23l3.211-0.616l2.404-0.461l7.153-1.384l7.288-1.404l2.384-0.461l19.364-3
				c3.134-0.481,6.269-1,9.403-1.481h0.019c2.75-0.423,5.481-0.827,8.25-1.135c0.577-0.077,1.135-0.134,1.711-0.192
				c0.673-0.077,1.346-0.154,2.019-0.25h0.019c12.288-1.422,24.537-3.134,36.882-3.923l10.98-0.885l8.538-0.692l9.903-0.461
				c0.019,0,0.019,0,0.019,0l3.654-0.173l5.961-0.288c11.557-0.693,23.133-0.731,34.709-0.846c0.019,0,0.038,0,0.038,0
				c1.462-0.02,2.904-0.039,4.365-0.058l4.538-0.058h0.347c1.634,0,3.25,0.077,4.884,0.096l9.768,0.25h0.173l7.903,0.193
				l1.712,0.038l4.884,0.115l2.422,0.058l2.442,0.135l0.289,0.019h0.212l19.018,1.077c1,0.058,1.981,0.115,2.981,0.173
				c2.25,0.115,4.519,0.231,6.769,0.423l9.73,0.885l8.115,0.75l11.326,1.058l7.538,0.923l5.558,0.693l2.769,0.346h0.019l3.481,0.423
				l4.096,0.519h0.019l5.558,0.711l9.634,1.519l4.635,0.75c0.019-0.019,0.019-0.019,0.038,0L1643.298,592.672z"/>
			<path style="fill:#442659;" d="M1591.962,589.997c19.372-7.432,38.745-14.864,58.117-22.296c3.341-1.282,7.278-3.386,7.244-6.965
				c-3.833-1.727-8.143-2.039-12.346-2.062C1619.682,558.539,1594.467,568.386,1591.962,589.997z"/>
			<path style="fill:#442659;" d="M1527.115,580.034c14.113,3.811,28.116,8.032,41.984,12.656c4.893,1.632,9.84,3.349,14.076,6.292
				c7.011,4.873,11.583,13.09,12.026,21.617c0.14,2.684-0.285,5.727-2.433,7.342c-2.369,1.781-5.71,1.053-8.549,0.202
				c-10.202-3.06-20.645-6.964-27.905-14.759C1549.035,605.568,1545.784,594.699,1527.115,580.034z"/>
			<path style="fill:#442659;" d="M1444.186,585.796c17.562,11.122,36.555,19.981,56.362,26.29c3.118,0.993,7.803,1.032,8.286-2.204
				c-10.642-14.474-28.659-23.211-46.614-22.603c11.424,2.469,23.773,0.347,33.717-5.793c-9.271-7.108-22.084-6.632-33.738-5.829
				c15.98-4.433,31.171-11.691,44.66-21.337c4.517-3.23,9.35-8.522,7.075-13.587c-2.223-4.95-9.226-5.005-14.469-3.607
				c-17.609,4.693-32.328,16.479-46.474,27.968C1446.49,570.371,1439.743,575.974,1444.186,585.796z"/>
			<path style="fill:#442659;" d="M1370.214,585.811c18.479,5.617,36.812,11.717,54.973,18.292c3.402,1.232,7.421,3.326,7.389,6.944
				c-12.859,3.166-26.185-1.693-38.535-6.474c3.375,4.411,6.431,9.067,9.135,13.919c2.142,3.843,4.035,8.732,1.637,12.42
				c-2.322,3.571-7.458,3.948-11.599,2.952c-10.353-2.489-18.391-10.888-23.543-20.206
				C1364.521,604.338,1361.704,593.945,1370.214,585.811z"/>
			<path style="fill:#442659;" d="M1327.298,594.702c21.29-14.362,41.743-29.966,61.218-46.706c2.106-1.81,4.359-3.941,4.525-6.713
				c0.211-3.547-3.341-6.413-6.879-6.75c-3.538-0.337-6.968,1.156-10.181,2.674c-20.107,9.5-40.012,22.28-50.275,42.008
				C1321.341,587.606,1319.607,599.89,1327.298,594.702z"/>
			<path style="fill:#442659;" d="M1254.418,596.893c18.667-6.592,37.634-12.336,56.821-17.209c1.269-0.322,2.757-0.597,3.77,0.232
				c1.704,1.394,0.365,4.148-1.179,5.719c-14.979,15.235-39.909,13.636-58.972,23.283c14.162-0.449,28.385,1.103,42.117,4.597
				c7.346,1.869,15.215,4.815,18.897,11.441c0.656,1.18,1.165,2.548,0.855,3.862c-0.293,1.246-1.266,2.211-2.263,3.014
				c-7.95,6.408-19.322,6.651-29.251,4.27c-9.929-2.381-19.201-7.018-29.112-9.474c10.119,2.167,19.482,7.725,26.228,15.572
				c1.886,2.194,3.636,4.725,3.85,7.61c0.308,4.151-2.799,8-6.622,9.646c-3.823,1.647-8.184,1.478-12.286,0.775
				c-9.109-1.563-17.981-5.843-23.794-13.027C1233.999,635.488,1226.614,606.712,1254.418,596.893z"/>
			<path style="fill:#442659;" d="M1160.741,643.623c9.914,7.436,19.848,14.885,30.438,21.321c6.328,3.846,13.515,7.441,20.82,6.225
				c7.305-1.216,13.63-9.572,10.114-16.09c-2.097-3.888-6.673-5.644-10.943-6.774c-12.541-3.318-25.799-3.897-38.581-1.683
				c9.44-1.856,18.83-4.995,26.474-10.836c7.644-5.842,13.37-14.698,13.785-24.31c0.075-1.751-0.069-3.641-1.166-5.009
				c-2.276-2.839-6.785-1.695-10.093-0.178c-14.035,6.439-27.032,15.134-38.34,25.649
				C1157.579,637.211,1152.114,643.341,1160.741,643.623z"/>
			<path style="fill:#442659;" d="M1049.082,694.976c9.644-20.932,20.325-41.387,31.989-61.265c1.315-2.241,2.994-4.715,5.573-5.029
				c2.737-0.333,5.185,2.141,5.794,4.83s-0.151,5.482-0.983,8.111c-3.995,12.624-9.792,24.675-17.161,35.675
				c-2.843,4.244-6.918,8.799-11.992,8.204c13.105-5.563,26.429-10.611,39.93-15.128c5.621-1.88,13.463-2.798,15.947,2.583
				c2.032,4.403-1.561,9.301-5.26,12.437c-11.938,10.123-27.84,15.439-43.465,14.53c18.056,3.77,37.684-1.661,54.798,5.219
				c4.876,1.96,9.773,5.469,10.686,10.645c-15.804,5.852-33.332,5.894-49.84,2.505
				C1068.59,714.905,1052.942,708.232,1049.082,694.976z"/>
			<path style="fill:#442659;" d="M972.882,736.282c11.294-17.888,21.7-36.337,31.167-55.256c2.959-5.914,5.906-12.38,4.767-18.894
				c-1.138-6.515-8.36-12.272-14.312-9.389c-2.584,1.252-4.305,3.765-5.694,6.278C974.776,684.398,982.343,719.327,972.882,736.282z
				"/>
			<path style="fill:#442659;" d="M1001.356,720.322c19.116-1.549,38.364-1.461,57.464,0.264c8.401,0.759,17.11,1.952,24.156,6.589
				c4.274,2.812,7.994,7.82,6.536,12.725c-1.05,3.535-4.485,5.838-7.952,7.096c-9.795,3.553-20.663,0.993-30.617-2.086
				C1028.724,738.037,1007.273,728.684,1001.356,720.322z"/>
			<path style="fill:#734494;" d="M1626.319,590.519c8.442,5.499,17.249,10.625,26.861,13.645c9.611,3.02,20.158,3.821,29.729,0.674
				c1.987-0.653,4.261-1.96,4.198-4.051c-0.063-2.086-2.385-3.248-4.365-3.903C1664.964,591,1645.91,589.005,1626.319,590.519z"/>
			<path style="fill:#734494;" d="M1596.023,583.311c12.498,4.531,25.673,7.084,37.992,12.082c4.162,1.689,8.325,3.734,11.335,7.068
				c1.134,1.256,2.113,3.113,1.239,4.562c-0.413,0.686-1.156,1.099-1.89,1.419c-4.591,2.006-9.96,1.548-14.668-0.166
				c-4.708-1.715-8.892-4.586-13.019-7.427C1609.29,595.532,1601.567,590.215,1596.023,583.311z"/>
			<path style="fill:#734494;" d="M1549.76,582.157c12.084,4.925,26.721,2.936,37.052-5.037c1.535-1.185,2.969-3.66,1.38-4.771
				c-0.659-0.461-1.542-0.372-2.339-0.265c-4.561,0.617-9.122,1.234-13.683,1.851c7.797-5.168,15.693-10.422,21.866-17.451
				c1.479-1.684,2.88-3.518,3.511-5.668c0.631-2.15,0.353-4.688-1.201-6.301c-1.978-2.053-5.254-2.021-8.059-1.512
				c-10.237,1.857-19.182,7.994-27.042,14.811C1552.937,565.019,1545.458,573.135,1549.76,582.157z"/>
			<path style="fill:#734494;" d="M1506.21,581.002c8.757-9.434,17.722-19.031,29.006-25.224c2.388-1.31,4.94-2.479,7.659-2.649
				c0.648-0.041,1.341-0.011,1.878,0.354c1.319,0.895,0.797,2.943,0.021,4.336c-5.684,10.202-16.797,15.925-27.315,20.998
				C1513.484,580.733,1509.223,582.689,1506.21,581.002z"/>
			<path style="fill:#734494;" d="M1490.183,584.83c15.117,0.117,31.296-1.804,44.406,5.724c4.935,2.833,9.142,6.922,12.116,11.773
				c0.264,0.43,0.527,0.909,0.464,1.409c-0.138,1.083-1.55,1.383-2.642,1.391C1527.026,605.255,1509.538,599.341,1490.183,584.83z"
				/>
			<path style="fill:#734494;" d="M1438.028,581.141c13.548,0.092,27.1-0.339,40.616-1.291c2.569-0.181,5.171-0.388,7.602-1.237
				c2.136-0.747,4.07-1.965,5.982-3.173c3.513-2.219,7.026-4.438,10.538-6.657c2.822-1.783,5.802-3.745,7.119-6.812
				c-3.528-3.777-8.953-5.343-14.119-5.175c-5.166,0.168-10.151,1.88-14.942,3.816
				C1466.873,566.251,1453.762,573.968,1438.028,581.141z"/>
			<path style="fill:#734494;" d="M1403.767,590.452c14.845-5.222,32.114-2.976,45.129,5.871c1.857,1.262,3.838,3.169,3.356,5.362
				c-0.603,2.744-4.289,3.213-7.086,2.937c-12.415-1.223-24.421-4.981-36.324-8.718c16.433,7.14,32.884,14.289,48.74,22.631
				c3.92,2.062,8.463,5.969,6.608,9.991c-1.239,2.688-4.698,3.435-7.657,3.414c-9.87-0.071-19.067-4.811-27.492-9.954
				C1412.621,611.962,1397.489,599.993,1403.767,590.452z"/>
			<path style="fill:#734494;" d="M1356.331,594.24c11.039-15.127,22.254-30.441,36.831-42.197
				c6.059-4.887,13.039-9.246,20.807-9.745c2.908-0.187,6.434,0.62,7.382,3.375c0.688,1.999-0.31,4.157-1.369,5.987
				c-7.616,13.154-19.93,23.522-34.189,28.785c7.219-3.246,14.823-5.636,22.601-7.104c3.768-0.711,7.907-1.149,11.224,0.775
				c0.974,0.565,1.868,1.36,2.272,2.411c0.599,1.558,0.008,3.332-0.885,4.742c-2.441,3.858-6.843,5.959-11.103,7.601
				C1393.653,595.132,1375.952,597.592,1356.331,594.24z"/>
			<path style="fill:#734494;" d="M1290.153,598.802c10.937,12.293,22.262,24.887,37.033,32.137
				c14.771,7.25,34.01,7.936,46.53-2.741c1.205-1.027,2.387-2.239,2.719-3.787c0.539-2.514-1.32-4.888-3.251-6.585
				c-3.38-2.972-7.393-5.221-11.693-6.552c-4.863-1.506-10.001-1.833-15.082-2.15
				C1327.41,607.938,1308.411,606.753,1290.153,598.802z"/>
			<path style="fill:#734494;" d="M1305.743,604.388c7.859-14.121,12.683-29.742,20.202-44.047
				c7.518-14.305,18.6-27.832,33.937-32.925c1.978-0.657,4.289-1.125,6.033,0.016c1.849,1.209,2.275,3.691,2.505,5.889
				c0.715,6.837,1.043,14.226-2.58,20.068c-1.965,3.167-4.921,5.571-7.821,7.913c-14.805,11.954-29.61,23.909-44.415,35.863
				C1308.52,601.268,1302.629,605.618,1305.743,604.388z"/>
			<path style="fill:#734494;" d="M1216.411,630.817c21.863-2.929,44.918-6.349,62.128-20.147c1.109-0.889,2.275-1.989,2.325-3.41
				c0.072-2.049-2.139-3.358-4.089-3.993c-14.128-4.599-29.276,1.542-42.854,7.575c16.994-5.864,31.981-17.386,42.016-32.301
				c2.829-4.204,5.344-8.925,5.324-13.992c-0.02-5.067-3.362-10.425-8.378-11.145c-2.965-0.426-5.913,0.773-8.574,2.148
				c-15.031,7.766-25.986,21.556-35.277,35.694C1219.741,605.385,1211.518,620.423,1216.411,630.817z"/>
			<path style="fill:#734494;" d="M1162.41,643.961c17.389-4.641,33.85-12.367,51.3-16.774c17.45-4.407,36.857-5.176,52.574,3.594
				c3.354,1.871,6.83,6.084,4.374,9.038c-0.645,0.776-1.585,1.236-2.507,1.645c-15.668,6.956-33.657,5.561-50.639,3.222
				C1200.531,642.345,1183.127,639.207,1162.41,643.961z"/>
			<path style="fill:#734494;" d="M1131.161,659.325c20.518-20.135,38.918-44.364,43.563-72.734
				c0.608-3.71,0.585-8.311-2.624-10.269c-3.508-2.141-7.937,0.568-10.893,3.423
				C1143.509,596.839,1136.634,621.983,1131.161,659.325z"/>
			<path style="fill:#734494;" d="M1146.231,651.065c24.465,0.755,49.229,1.554,72.757,8.307c7.294,2.094,15.187,5.44,18.13,12.435
				c0.715,1.7,1.073,3.696,0.279,5.361c-1.141,2.394-4.115,3.19-6.744,3.537c-16.715,2.204-33.538-2.904-49.063-9.478
				S1151.089,656.518,1146.231,651.065z"/>
			<path style="fill:#734494;" d="M1086.07,672.899c13.811-16.493,23.17-37.951,42.107-48.157c2.014-1.085,4.922-1.839,6.257,0.02
				c0.559,0.779,0.626,1.8,0.625,2.76c-0.018,10.772-6.192,20.805-14.312,27.883C1112.626,662.483,1102.673,667.057,1086.07,672.899
				z"/>
			<path style="fill:#734494;" d="M1121.564,666.025c31.546-0.247,64.135-0.296,93.149,12.089c3.315,1.415,6.989,3.538,7.471,7.11
				c-9.183,8.511-23.599,6.751-35.803,3.95C1158.217,682.71,1130.663,673.592,1121.564,666.025z"/>
			<path style="fill:#734494;" d="M1016.553,720.373c11.251-14.27,21.932-28.989,32.009-44.11
				c7.713-11.574,15.389-24.864,12.909-38.549c-0.433-2.391-1.214-4.797-2.804-6.635c-3.537-4.092-9.97-4.174-15.074-2.384
				c-14.991,5.256-22.418,21.856-26.864,37.107C1010.449,687.341,1006.769,709.639,1016.553,720.373z"/>
			<path style="fill:#734494;" d="M961.843,745.623c7.451-18.394,17.854-35.589,30.691-50.725c1.992-2.348,4.625-4.869,7.658-4.341
				c2.184,0.38,3.774,2.264,4.906,4.17c4.522,7.609,4.616,17.648,0.238,25.341c-5.736,10.078-18.26,16.097-20.74,27.425
				c15.991-5.274,32.082-10.573,48.747-12.987c10.346-1.499,21.611-1.683,30.437,3.92c8.826,5.604,13.35,18.839,6.697,26.903
				c-4.878,5.913-13.421,6.954-21.083,7.183c-18.368,0.547-36.8-1.081-54.788-4.842
				C981.054,764.837,966.675,760.039,961.843,745.623z"/>
			<path style="fill:#734494;" d="M1048.941,695.274c15.468,0.237,30.785-2.989,46.241-3.63c15.457-0.642,31.919,1.697,43.9,11.483
				c0.721,0.589,1.476,1.303,1.541,2.232c0.125,1.775-2.129,2.604-3.893,2.842C1103.3,712.725,1068.838,709.449,1048.941,695.274z"
				/>
		</g>
		<path style="fill:#748C2D;" d="M687.29,1459.137c9.232-38.794,18.713-78.223,38.753-112.698
			c13.361-22.984,31.085-43.144,49.905-61.922c34.679-34.6,73.434-65.023,106.855-100.839c27.938-29.94,52.104-63.598,83.224-90.215
			c-56.052,82.298-112.104,164.596-168.156,246.894c-17.535,25.746-35.131,51.57-55.77,74.902
			c-10.462,11.827-22.08,23.257-36.632,29.387C691.772,1450.416,672.828,1454.807,687.29,1459.137z"/>
		<path style="fill:#748C2D;" d="M772.084,995.644c30.989-122.939,10.807-257.949-54.777-366.453
			c2.867,55.014,5.78,110.362,18.18,164.036c8.32,36.014,20.951,71.69,20.397,108.648
			C755.332,938.719,742.851,980.237,772.084,995.644z"/>
		<path style="fill:#748C2D;" d="M717.307,1252.827c-25.878-97.956-56.829-194.571-92.685-289.33
			c6.798,74.975,22.491,149.138,46.645,220.44c4.172,12.315,8.703,24.751,16.493,35.162
			C698.785,1233.835,715.793,1243.771,717.307,1252.827z"/>
		<path style="fill:#748C2D;" d="M682.103,1456.235c-22.032-79.316-55.24-155.518-98.336-225.654
			c-31.743-51.66-75.235-103.998-135.295-112.314C505.162,1234.823,566.608,1356.949,682.103,1456.235z"/>
		<path style="fill:#748C2D;" d="M697.366,1359.923c-25.896-109.955-69.323-215.762-128.139-312.206
			c-0.7,36.466,2.52,73.329,13.656,108.06c10.14,31.624,26.591,60.789,42.93,89.701c15.343,27.15,30.686,54.3,46.03,81.45
			C675.661,1333.684,681.481,1341.462,697.366,1359.923z"/>
		<path style="fill:#516933;" d="M923.784,1040.988c-23.714,19.976-46.681,40.51-68.452,62.209
			c-10.796,10.934-21.514,21.923-31.712,33.387c-10.299,11.369-20.296,22.988-29.9,34.973
			c-19.347,23.846-37.887,48.504-56.756,72.993c-4.716,6.081-9.257,12.233-13.623,18.476c-4.365,6.242-8.417,12.675-11.907,19.392
			c-7.073,13.321-11.738,28.226-10.774,43.802c-1.733-7.573-1.88-15.566-0.765-23.384c1.09-7.837,3.46-15.464,6.399-22.799
			c6.087-14.627,14.594-27.98,23.383-40.775c17.532-25.491,35.425-50.84,55.098-74.983c9.905-12.001,20.112-23.809,30.853-35.099
			c10.819-11.213,21.872-22.204,33.548-32.506C872.391,1075.94,897.275,1057.09,923.784,1040.988z"/>
		<path style="fill:#516933;" d="M595.262,794.933c21.225,26.64,41.54,53.982,60.173,82.613
			c9.405,14.257,18.113,28.989,26.433,43.966c8.212,15.038,15.714,30.495,22.51,46.283c13.414,31.661,23.051,65.102,27.296,99.31
			c4.249,34.125,2.854,69.249-6.561,102.075c4.674-33.768,3.415-67.707-2.344-100.753c-5.771-33.069-15.987-65.215-29.01-96.142
			c-6.441-15.521-13.76-30.69-21.508-45.658c-7.641-15.033-16.033-29.696-24.451-44.378
			C630.774,852.992,612.562,824.291,595.262,794.933z"/>
		<path style="fill:none;" d="M856.543,816.634c-0.327,1.038-0.654,2.077-1,3.115C853.467,821.153,851.87,820.595,856.543,816.634z"
			/>
		<path style="fill:#734494;" d="M898.487,1062.345c3.722-22.267,14.254-43.349,29.822-59.699c2.877-3.021,6.584-6.108,10.701-5.437
			c-0.256,3.256-0.226,7.15,2.471,8.992c1.081,0.738,2.414,0.988,3.71,1.171c3.232,0.459,6.542,0.625,9.626,1.695
			c3.084,1.07,6.005,3.26,6.925,6.392c0.93,3.164-0.33,6.513-0.505,9.807c-0.22,4.136,1.288,8.209,1.149,12.348
			c-0.273,8.144-6.981,14.896-14.526,17.973c-7.545,3.076-15.895,3.287-24.022,3.872S907.266,1061.17,898.487,1062.345z"/>
		<path style="fill:#734494;" d="M894.437,1063.743c8.047-10.361,15.875-21.02,21.479-32.881
			c5.604-11.862,8.911-25.094,7.461-38.133c-0.157-1.414-0.423-2.931-1.444-3.922c-1.369-1.328-3.605-1.215-5.387-0.536
			c-6.576,2.506-9.075,10.325-10.746,17.162C901.037,1024.916,896.275,1044.398,894.437,1063.743z"/>
		<path style="fill:#516933;" d="M879.024,1075.019c-1.902-16.495,3.656-33.706,14.847-45.972c3.654-4.005,9.287-7.722,14.151-5.329
			c5.464,2.688,6.209,11.492,12.061,13.175c0.922,0.265,1.902,0.317,2.797,0.661c2.568,0.987,3.672,3.993,4.124,6.707
			c0.451,2.714,0.631,5.669,2.391,7.784c1.073,1.29,2.675,2.175,3.354,3.709c1.295,2.927-1.455,5.996-4.081,7.827
			C913.638,1074.058,894.663,1076.497,879.024,1075.019z"/>
		<path style="fill:#734494;" d="M618.708,821.128c-12.543-35.121-21.996-71.263-33.565-106.716
			c-1.691-5.181-3.491-10.467-6.903-14.716s-8.812-7.318-14.196-6.478c-6.59,1.028-10.939,7.203-14.504,12.84
			c-5.488,8.679-11.143,17.856-11.721,28.109c-0.155,2.754,0.023,5.693-1.384,8.066c-1.028,1.735-2.765,2.91-4.445,4.026
			c-3.773,2.506-7.547,5.012-11.32,7.518c-1.31,0.87-2.724,1.884-3.081,3.416c-0.34,1.46,0.392,2.941,1.185,4.213
			c6.996,11.234,19.812,17.382,32.379,21.531c12.567,4.148,25.817,7.003,36.958,14.146
			C599.487,804.378,607.774,815.592,618.708,821.128z"/>
		<path style="fill:#734494;" d="M627.858,835.727c-12.901-8.892-21.141-23.379-34.101-32.183
			c-8.436-5.731-18.4-8.726-28.286-11.229c-19.634-4.971-41.98-7.898-58.845,3.316c6.725,10.437,20.577,13.173,32.933,14.382
			C563.736,812.377,589.384,812.877,627.858,835.727z"/>
		<path style="fill:#734494;" d="M623.577,841.129c-24.315-33.285-39.911-72.881-44.828-113.807
			c-0.966-8.039-1.104-17.31,4.762-22.891c1.341-1.276,3.184-2.323,4.978-1.866c1.449,0.369,2.482,1.614,3.384,2.805
			C617.838,739.656,621.3,785.398,623.577,841.129z"/>
		<path style="fill:#516933;" d="M645.834,869.432c-2.728-36.651-5.533-73.71-16.825-108.685
			c-2.101-6.506-6.286-14.173-13.106-13.698c-5.255,0.366-8.708,5.565-10.828,10.388c-2.525,5.742-4.377,11.779-5.508,17.949
			c-0.431,2.349-0.979,5.049-3.078,6.19c-1.331,0.724-2.942,0.599-4.454,0.493c-5.229-0.367-11.147,0.005-14.662,3.892
			c-3.477,3.844-3.519,10.043-7.309,13.578c-2.776,2.589-7.437,3.694-8.294,7.392c-0.687,2.966,1.619,5.727,3.844,7.805
			C588.06,835.699,619.383,844.93,645.834,869.432z"/>
	</g>
</g>
</svg>
